<?xml version="1.0" standalone="no"?>
<!DOCTYPE svg PUBLIC "-//W3C//DTD SVG 1.0//EN" "http://www.w3.org/TR/2001/REC-SVG-20010904/DTD/svg10.dtd">
<svg xmlns="http://www.w3.org/2000/svg" xmlns:xlink="http://www.w3.org/1999/xlink" id="body_1" width="102" height="77">

<g transform="matrix(0.15039062 0 0 0.15039062 17.3125 -0)">
    <path d="M64 224L77.5 224C 102.2 280.5 158.4 320 224 320C 289.6 320 345.8 280.5 370.5 224L370.5 224L384 224C 392.8 224 400 216.8 400 208L400 208L400 112C 400 103.2 392.8 96 384 96L384 96L370.5 96C 345.8 39.5 289.6 0 224 0C 158.4 0 102.2 39.5 77.5 96L77.5 96L64 96C 55.2 96 48 103.2 48 112L48 112L48 208C 48 216.8 55.2 224 64 224zM104 136C 104 113.9 125.5 96 152 96L152 96L296 96C 322.5 96 344 113.9 344 136L344 136L344 160C 344 213 301 256 248 256L248 256L200 256C 147 256 104 213 104 160L104 160L104 136zM176 208L188 172L224 160L188 148L176 112L164 148L128 160L164 172L176 208zM327.6 321.4C 297.7 340.7 262.2 352 224 352C 185.79999 352 150.3 340.7 120.4 321.4C 52.9 328.5 0 385 0 454.4L0 454.4L0 464C 0 490.5 21.5 512 48 512L48 512L128 512L128 448C 128 430.3 142.3 416 160 416L160 416L288 416C 305.7 416 320 430.3 320 448L320 448L320 512L400 512C 426.5 512 448 490.5 448 464L448 464L448 454.4C 448 385 395.1 328.5 327.6 321.4zM272 448C 263.2 448 256 455.2 256 464C 256 472.8 263.2 480 272 480C 280.8 480 288 472.8 288 464C 288 455.2 280.8 448 272 448zM176 448C 167.2 448 160 455.2 160 464L160 464L160 512L192 512L192 464C 192 455.2 184.8 448 176 448z" stroke="none" fill="#000000" fill-rule="nonzero" fill-opacity="0" />
</g>
</svg>